<?xml version="1.0" encoding="UTF-8"?>
<svg id="Layer_2" data-name="Layer 2" xmlns="http://www.w3.org/2000/svg" viewBox="0 0 227 440.34">
  <defs>
    <style>
      .cls-1 {
        fill: #334daa;
      }
    </style>
  </defs>
  <g id="Layer_1-2" data-name="Layer 1">
    <g>
      <path class="cls-1" d="m158.43,89.83h-89.86c0,26.24,21.29,47.53,47.53,47.53h42.33c12.5,0,23.13-2.3,31.89-6.91,8.73-4.58,15.82-10.31,21.26-17.14,5.43-6.83,9.34-14.27,11.78-22.3,2.41-8.06,3.64-15.53,3.64-22.41,0-12.53-2.3-23.16-6.91-31.92-4.6-8.73-10.31-15.82-17.14-21.26-6.83-5.44-14.24-9.34-22.22-11.78-7.98-2.41-15.42-3.64-22.3-3.64h-89.86c-12.5,0-23.13,2.3-31.89,6.91-8.76,4.61-15.82,10.31-21.26,17.14-5.43,6.83-9.34,14.24-11.78,22.22-2.44,7.98-3.64,15.42-3.64,22.33v69.91c0,12.5,2.3,23.13,6.91,31.89,4.58,8.76,10.31,15.82,17.14,21.26,6.83,5.44,14.24,9.34,22.22,11.78,7.98,2.41,15.42,3.64,22.3,3.64h145.12c0-26.13-21.18-47.31-47.31-47.31h-97.81c-6.1,0-11.19-1.93-15.21-5.76-4.04-3.83-6.05-9-6.05-15.5v-69.53c0-6.13,1.85-11.25,5.54-15.34,3.72-4.07,8.94-6.13,15.72-6.13h89.46c5.89,0,10.95,1.85,15.23,5.46,4.28,3.64,6.43,8.73,6.43,15.23,0,6.13-1.85,11.27-5.57,15.42-3.69,4.15-8.94,6.21-15.69,6.21Z"/>
      <path class="cls-1" d="m220.09,269.97c-4.6-8.76-10.31-15.85-17.14-21.29-6.83-5.41-14.24-9.34-22.22-11.78-7.98-2.41-15.42-3.61-22.3-3.61H13.28c0,26.13,21.21,47.31,47.34,47.31h97.81c6.1,0,11.19,1.9,15.21,5.73,4.04,3.83,6.05,9.02,6.05,15.53v69.53c0,6.1-1.85,11.22-5.57,15.32-3.69,4.1-8.94,6.13-15.69,6.13h-89.46c-5.89,0-10.95-1.82-15.23-5.46-4.28-3.64-6.43-8.7-6.43-15.23,0-6.13,1.85-11.27,5.54-15.42,3.72-4.15,8.94-6.21,15.72-6.21h89.86c0-26.24-21.29-47.53-47.53-47.53h-42.33c-12.5,0-23.13,2.3-31.89,6.91-8.76,4.61-15.82,10.31-21.26,17.14-5.43,6.85-9.34,14.27-11.78,22.33-2.44,8.03-3.64,15.5-3.64,22.41,0,12.53,2.3,23.16,6.91,31.89,4.58,8.76,10.31,15.85,17.14,21.26,6.83,5.44,14.24,9.37,22.22,11.78,7.98,2.44,15.42,3.64,22.3,3.64h89.86c12.5,0,23.13-2.3,31.89-6.91,8.73-4.58,15.82-10.28,21.26-17.14,5.41-6.83,9.34-14.24,11.78-22.22,2.41-7.98,3.64-15.4,3.64-22.3v-69.91c0-12.5-2.3-23.16-6.91-31.89Z"/>
    </g>
  </g>
</svg>