<?xml version="1.0" encoding="UTF-8"?>
<svg id="Layer_2" data-name="Layer 2" xmlns="http://www.w3.org/2000/svg" viewBox="0 0 538.6 183.83">
  <defs>
    <style>
      .cls-1 {
        fill: #334daa;
      }
    </style>
  </defs>
  <g id="Layer_1-2" data-name="Layer 1">
    <g>
      <g>
        <path class="cls-1" d="m66.14,37.5H28.63c0,10.95,8.89,19.84,19.84,19.84h17.67c5.22,0,9.66-.96,13.31-2.88,3.64-1.91,6.61-4.3,8.88-7.15,2.27-2.85,3.9-5.96,4.92-9.31,1.01-3.36,1.52-6.48,1.52-9.36,0-5.23-.96-9.67-2.88-13.32-1.92-3.64-4.3-6.61-7.15-8.88-2.85-2.27-5.95-3.9-9.28-4.92-3.33-1.01-6.44-1.52-9.31-1.52H28.63c-5.22,0-9.66.96-13.31,2.88-3.66,1.92-6.61,4.3-8.88,7.15-2.27,2.85-3.9,5.95-4.92,9.28s-1.52,6.44-1.52,9.32v29.19c0,5.22.96,9.66,2.88,13.31,1.91,3.66,4.3,6.61,7.15,8.88,2.85,2.27,5.95,3.9,9.28,4.92,3.33,1.01,6.44,1.52,9.31,1.52h60.58c0-10.91-8.84-19.75-19.75-19.75H28.63c-2.55,0-4.67-.8-6.35-2.4-1.69-1.6-2.53-3.76-2.53-6.47v-29.03c0-2.56.77-4.69,2.31-6.4,1.55-1.7,3.73-2.56,6.56-2.56h37.35c2.46,0,4.57.77,6.36,2.28,1.79,1.52,2.68,3.64,2.68,6.36,0,2.56-.77,4.71-2.33,6.44-1.54,1.73-3.73,2.59-6.55,2.59Z"/>
        <path class="cls-1" d="m91.88,112.71c-1.92-3.66-4.3-6.62-7.15-8.89-2.85-2.26-5.95-3.9-9.28-4.92-3.33-1.01-6.44-1.51-9.31-1.51H5.54c0,10.91,8.85,19.75,19.76,19.75h40.83c2.55,0,4.67.79,6.35,2.39,1.69,1.6,2.53,3.77,2.53,6.48v29.03c0,2.55-.77,4.68-2.33,6.39-1.54,1.71-3.73,2.56-6.55,2.56H28.79c-2.46,0-4.57-.76-6.36-2.28s-2.68-3.63-2.68-6.36c0-2.56.77-4.71,2.31-6.44,1.55-1.73,3.73-2.59,6.56-2.59h37.51c0-10.95-8.89-19.84-19.84-19.84h-17.67c-5.22,0-9.66.96-13.31,2.88-3.66,1.92-6.61,4.3-8.88,7.15-2.27,2.86-3.9,5.96-4.92,9.32-1.02,3.35-1.52,6.47-1.52,9.36,0,5.23.96,9.67,2.88,13.31,1.91,3.66,4.3,6.62,7.15,8.88,2.85,2.27,5.95,3.91,9.28,4.92,3.33,1.02,6.44,1.52,9.31,1.52h37.51c5.22,0,9.66-.96,13.31-2.88,3.64-1.91,6.61-4.29,8.88-7.15,2.26-2.85,3.9-5.95,4.92-9.28,1.01-3.33,1.52-6.43,1.52-9.31v-29.19c0-5.22-.96-9.67-2.88-13.31Z"/>
      </g>
      <g>
        <path class="cls-1" d="m411.06,61.71c-10.47-7.35-24.8-11.07-42.56-11.07-6.19,0-12.71.48-19.39,1.43-6.56.94-12.38,2.44-17.27,4.47-7.17,2.96-10.64,7.49-10.64,13.85,0,2.77.66,5.45,1.96,8,1.05,2.02,2.25,3.62,3.59,4.78,4.88-1.94,10.39-3.66,16.39-5.14,6.6-1.64,13.46-2.45,20.34-2.45,9.06,0,16.19,1.44,21.24,4.3,5.51,3.11,8.31,8.22,8.31,15.16v5.44l-37.51,3.95c-14.09,1.36-24.77,5.13-31.74,11.2-6.92,6.01-10.27,14.45-10.27,25.8,0,13.18,4.87,22.82,14.9,29.44,10.22,6.76,24.25,10.19,41.69,10.19,9.82,0,18.68-.91,26.33-2.72,7.57-1.79,13.97-4.23,19.02-7.26,3.34-1.83,6.03-4,8.12-6.48,1.93-2.3,2.86-5.28,2.86-9.13v-60.16c0-15.36-5.03-26.34-15.36-33.6Zm-17.79,89.88l-1.22.73c-2.04,1.22-5.11,2.24-9.4,3.1-4.13.82-8.36,1.24-12.56,1.24-8.08,0-13.86-1.43-17.69-4.36-4-3.05-6.02-7.15-6.02-12.2s2.25-9.15,6.5-11.7c3.87-2.31,9.08-3.68,15.46-4.06l24.93-2.38v29.63Z"/>
        <path class="cls-1" d="m260.14,20.93h18.54c8.8,0,15.94,7.14,15.94,15.94v141.8h-18.54c-8.8,0-15.94-7.14-15.94-15.94V20.93h0Z"/>
        <path class="cls-1" d="m163.61,150.3v-39.68h72.45v-13.49c0-7.23-5.87-13.1-13.1-13.1h-59.35v-36.03h62.4c.9,0,1.75-.06,2.54-.19h7.5v-13.49c0-7.23-5.87-13.1-13.1-13.1h-74.6c-5.91,0-10.45,1.64-13.88,4.99-3.4,3.33-5.07,7.9-5.07,13.97v118.21c0,5.91,1.67,10.44,5.09,13.86,3.43,3.43,7.98,5.1,13.86,5.1h87.71v-13.95c0-7.23-5.87-13.1-13.1-13.1h-59.35Z"/>
        <path class="cls-1" d="m485.06,107.89v52.93c0,9.85-7.99,17.84-17.84,17.84h-16.37v-110.4c0-11.11,2.31-20.17,6.88-26.97,4.54-6.78,10.93-11.86,18.99-15.1,8.23-3.31,17.51-4.99,27.55-4.99,11.89,0,20.81,1.55,26.51,4.6,5.26,2.83,7.81,7.26,7.81,13.56,0,2.76-.57,5.21-1.68,7.3-.91,1.68-1.86,3.07-2.87,4.18-3.03-.9-6.3-1.66-9.71-2.28-4.04-.74-8.56-1.1-13.44-1.1-8.79,0-15.61,1.67-20.28,4.97-4.92,3.49-7.42,9.26-7.42,17.15v13.11h31.79c9.85,0,17.84,7.99,17.84,17.84v7.24"/>
      </g>
    </g>
  </g>
</svg>